# xmcd
#
# Track frame offsets:
#	150
#	20570
#	33431
#	49675
#	62158
#	77859
#	95679
#	110796
#	126403
#	140449
#	153072
#	168314
#	188110
#	203003
#
# Disc length: 2976 seconds
#
# Revision: 0
# Processed by: cddbd v1.5.2PL0 Copyright (c) Steve Scherf et al.
# Submitted via: EasyCDDAExtractor 11.1.0.1
#
DISCID=c00b9e0e
DTITLE=Various Artist - Mr music country
DYEAR=2010
DGENRE=country
TTITLE0=brad Paisley - You do the math
TTITLE1=Brooks and Dunn - My next broken heart
TTITLE2=Leland Martin - The purple bag
TTITLE3=Miranda Lambert - Airstream song
TTITLE4=I see hawks in L.A. - Good and foolish times
TTITLE5=Rodney Hayden - That's how long
TTITLE6=Albert and Gage - True love knows
TTITLE7=Chris young - It takes a man
TTITLE8=Keith Miles - Who's that girl
TTITLE9=Amber Digby and Randy Lindley - Please be my love
TTITLE10=Kevin Deal - 20 year old trucks
TTITLE11=Mike Cullison - Wish I didn't like whiskey
TTITLE12=Eddie Rivers - Tonight the bottle let me down
TTITLE13=Abi Tapia - The last waltz
EXTD=
EXTT0=
EXTT1=
EXTT2=
EXTT3=
EXTT4=
EXTT5=
EXTT6=
EXTT7=
EXTT8=
EXTT9=
EXTT10=
EXTT11=
EXTT12=
EXTT13=
PLAYORDER=
